<svg width="46" height="46" viewBox="0 0 46 46" fill="none" xmlns="http://www.w3.org/2000/svg">
<g clip-path="url(#clip0_53841_12512)">
<path fill-rule="evenodd" clip-rule="evenodd" d="M22.9605 3.38791e-05C27.5112 -0.00777504 31.9619 1.33451 35.7494 3.85703C39.5369 6.37955 42.491 9.96892 44.2379 14.1709C45.9847 18.3729 46.4459 22.9987 45.5629 27.4629C44.6799 31.927 42.4924 36.0289 39.2774 39.2495C36.0624 42.47 31.9642 44.6645 27.5016 45.5552C23.039 46.4458 18.4124 45.9927 14.2074 44.253C10.0024 42.5134 6.40798 39.5654 3.87896 35.7822C1.34994 31.9991 1.51813e-05 27.5507 8.48121e-06 23C-0.00258414 19.9822 0.589251 16.9934 1.74172 14.2044C2.89419 11.4153 4.58473 8.8805 6.71681 6.74475C8.8489 4.609 11.3808 2.91411 14.1679 1.75685C16.955 0.599592 19.9427 0.00262427 22.9605 3.38791e-05Z" fill="#F58220"/>
<mask id="mask0_53841_12512" style="mask-type:luminance" maskUnits="userSpaceOnUse" x="0" y="0" width="46" height="46">
<path d="M22.9605 3.38791e-05C27.5112 -0.00777504 31.9619 1.33451 35.7494 3.85703C39.5369 6.37955 42.491 9.96892 44.2379 14.1709C45.9847 18.3729 46.4459 22.9987 45.5629 27.4629C44.6799 31.927 42.4924 36.0289 39.2774 39.2495C36.0624 42.47 31.9642 44.6645 27.5016 45.5552C23.039 46.4458 18.4124 45.9927 14.2074 44.253C10.0024 42.5134 6.40798 39.5654 3.87896 35.7822C1.34994 31.9991 1.51813e-05 27.5507 8.48121e-06 23C-0.00258414 19.9822 0.589251 16.9934 1.74172 14.2044C2.89419 11.4153 4.58473 8.8805 6.71681 6.74475C8.8489 4.609 11.3808 2.91411 14.1679 1.75685C16.955 0.599592 19.9427 0.00262427 22.9605 3.38791e-05Z" fill="white"/>
</mask>
<g mask="url(#mask0_53841_12512)">
<path fill-rule="evenodd" clip-rule="evenodd" d="M8.68262 27.529C8.68262 33.7748 12.5307 38.0867 19.1318 41.0172V-1.9043L8.68262 -1.76616V27.529ZM22.8023 23.6809V14.1099C40.8392 11.1004 47.3514 40.0996 22.8812 40.9974V31.6929C30.8735 32.1961 31.4063 22.7435 22.8023 23.7105V23.6809Z" fill="white"/>
</g>
</g>
<defs>
<clipPath id="clip0_53841_12512">
<rect width="46" height="46" fill="white"/>
</clipPath>
</defs>
</svg>
